<svg viewBox="0 0 12 12" fill="none" xmlns="http://www.w3.org/2000/svg"><clipPath id="a"><rect rx="0" height="12" width="12"/></clipPath><g fill="#4E5969" clip-path="url(#a)" data-follow-fill="#4E5969"><path d="m12 6.73-1.41 2.94a1.028 1.028 0 0 1-.915.556H1.359a.206.206 0 0 1-.184-.299l.004-.007a.507.507 0 0 0-.158-.64l-.012-.009A1.8 1.8 0 0 1 .258 7.81v-.667h7.404v-.005c0-.225.183-.407.406-.407H12Z"/><path d="M7.249 4.264h-1.44a.206.206 0 0 0-.205.205V6.73c0 .114.092.206.206.206h1.439a.205.205 0 0 0 .205-.206V4.47a.204.204 0 0 0-.205-.205Zm2.468.822H8.073a.206.206 0 0 0-.207.205v.823c0 .114.093.205.207.205h1.645a.206.206 0 0 0 .206-.205v-.823a.207.207 0 0 0-.207-.205ZM3.343 6.936h1.645a.205.205 0 0 0 .205-.206V5.085a.206.206 0 0 0-.205-.206H3.343a.207.207 0 0 0-.206.206V6.73a.206.206 0 0 0 .206.206ZM1.75 3.91V3.33h.389v-.39h-.39V1.773h-.194V2.94H.971v.39h.584v.583H0v.39h.584v2.72h2.138V4.264l.516-.353H1.75Zm.582 2.334h-.584v-.777h.584v.777Zm0-1.167h-.584v-.584h.584v.584Z"/></g></svg>